<?xml version="1.0" standalone="no"?><!DOCTYPE svg PUBLIC "-//W3C//DTD SVG 1.1//EN" "http://www.w3.org/Graphics/SVG/1.1/DTD/svg11.dtd"><svg t="1596962145427" class="icon" viewBox="0 0 1024 1024" version="1.1" xmlns="http://www.w3.org/2000/svg" p-id="1310" xmlns:xlink="http://www.w3.org/1999/xlink" width="200" height="200"><defs><style type="text/css"></style></defs><path d="M913.95413333 53.73345185H131.40574815c-42.71976297 0-77.6722963 34.95253333-77.6722963 77.6722963V822.68918518c0 42.71976297 34.95253333 77.6722963 77.6722963 77.6722963h782.54838518c42.71976297 0 77.6722963-34.95253333 77.6722963-77.6722963V131.40574815c0-42.71976297-34.95253333-77.6722963-77.6722963-77.6722963z m0 730.11958518c0 21.35988148-17.47626667 38.83614815-38.83614815 38.83614815H170.2418963c-21.35988148 0-38.83614815-17.47626667-38.83614815-38.83614815V170.2418963c0-21.35988148 17.47626667-38.83614815 38.83614815-38.83614815h704.87608888c21.35988148 0 38.83614815 17.47626667 38.83614815 38.83614815V783.85303703zM766.37677037 929.48859259H278.98311111c-21.35988148 0-38.83614815 17.47626667-38.83614814 38.83614816s17.47626667 38.83614815 38.83614814 38.83614814h487.39365926c21.35988148 0 38.83614815-17.47626667 38.83614815-38.83614814s-17.47626667-38.83614815-38.83614815-38.83614816z" p-id="1311"></path><path d="M418.79324445 329.4701037c-1.94180741-5.82542222-7.76722963-9.70903703-13.59265186-9.70903703h-42.71976296c-5.82542222 0-11.65084445 3.88361482-13.59265185 9.70903703l-112.62482963 295.15472593c-1.94180741 3.88361482-1.94180741 9.70903703 1.9418074 13.59265185 1.94180741 3.88361482 7.76722963 5.82542222 11.65084445 5.82542222h40.77795555c5.82542222 0 11.65084445-3.88361482 13.59265186-9.70903703l29.12711111-79.6141037h102.91579259l31.06891852 79.6141037c1.94180741 5.82542222 7.76722963 9.70903703 13.59265185 9.70903703h44.66157037c5.82542222 0 9.70903703-1.94180741 11.65084445-5.82542222 1.94180741-3.88361482 3.88361482-9.70903703 1.9418074-13.59265185l-120.39205925-295.15472593z m-64.07964445 165.05362963l25.2434963-67.96325925c1.94180741-3.88361482 1.94180741-7.76722963 3.88361481-11.65084445 1.94180741 5.82542222 3.88361482 9.70903703 5.82542222 15.53445926l23.30168889 62.13783703h-58.25422222z m409.72136297-145.63555555c-13.59265185-11.65084445-31.06891852-19.41807408-48.54518519-25.2434963-13.59265185-3.88361482-31.06891852-3.88361482-56.31241481-3.88361481h-100.97398519c-7.76722963 0-15.53445925 5.82542222-15.53445926 15.53445925v295.15472593c0 7.76722963 5.82542222 15.53445925 15.53445926 15.53445926h106.7994074c19.41807408 0 36.89434075-1.94180741 50.4869926-5.82542222 15.53445925-3.88361482 29.12711111-9.70903703 40.77795555-17.47626667 11.65084445-7.76722963 21.35988148-17.47626667 31.06891852-31.06891852 9.70903703-13.59265185 17.47626667-29.12711111 21.35988148-46.60337778 5.82542222-19.41807408 7.76722963-40.77795555 7.76722964-64.07964444 0-27.1853037-3.88361482-52.4288-11.65084445-75.73048889-9.70903703-23.30168889-23.30168889-40.77795555-40.77795555-56.31241481z m-25.2434963 184.4717037c-3.88361482 13.59265185-9.70903703 23.30168889-17.47626667 31.06891852-5.82542222 5.82542222-11.65084445 9.70903703-21.35988148 11.65084445-9.70903703 3.88361482-23.30168889 3.88361482-40.77795555 3.8836148h-48.54518519V383.84071111H657.63555555c27.1853037 0 38.83614815 1.94180741 44.66157037 5.82542222 11.65084445 3.88361482 21.35988148 13.59265185 29.12711111 27.1853037 7.76722963 13.59265185 13.59265185 34.95253333 13.59265186 64.07964445 1.94180741 19.41807408 0 36.89434075-5.82542222 52.4288z" p-id="1312"></path></svg>