<?xml version="1.0" standalone="no"?><!DOCTYPE svg PUBLIC "-//W3C//DTD SVG 1.1//EN" "http://www.w3.org/Graphics/SVG/1.1/DTD/svg11.dtd"><svg t="1596962149453" class="icon" viewBox="0 0 1453 1024" version="1.1" xmlns="http://www.w3.org/2000/svg" p-id="1445" xmlns:xlink="http://www.w3.org/1999/xlink" width="283.7890625" height="200"><defs><style type="text/css"></style></defs><path d="M1425.86247396 262.06608497l-359.25378844-304.05791288c-11.43530382-17.60442595-33.28646258-28.52709262-56.78621583-28.52709262H423.30148409c-24.00656498 0-46.05578809 11.27801742-57.29302755 29.37177884L14.75879822 262.94572373a48.38595698 48.38595698 0 0 0 2.8020281 55.84832285l648.53260515 746.35892053c11.92463929 15.7810688 32.44760178 25.31728498 54.49682489 25.31728498s42.5488839-9.53621618 54.4968249-25.31728498L1423.61386098 318.79404658v0.05825422a48.40925867 48.40925867 0 0 0 2.24861298-56.78621581z m-467.02409956-132.95361137L855.22158934 312.27539911l-103.56435627-183.16292551h207.18114133z m-135.45854293 187.23489565h-207.15783965l103.59348339-177.08118472 103.56435626 177.08118472z m-133.88567893-187.23489565l-103.56435627 183.16292551L482.33631289 129.1124736h207.15783965z m-239.69864817 10.15371093l103.59348337 177.08118472H346.23114809l103.56435628-177.08118472z m-101.39729921 206.21994666h214.92312745l143.89957975 445.35935432-358.8227072-445.3593543z m253.91850382 0h236.43058632l-109.34900054 446.26812019-127.08158578-446.26812019z m146.42198756 445.35935432l132.16717938-445.3593543h213.26288213l-345.43006151 445.3593543z m139.04700302-474.49811626l103.61678506-177.08118472 103.56435627 177.08118472H887.78569956z" p-id="1446"></path></svg>