<?xml version="1.0" standalone="no"?><!DOCTYPE svg PUBLIC "-//W3C//DTD SVG 1.1//EN" "http://www.w3.org/Graphics/SVG/1.1/DTD/svg11.dtd"><svg t="1596962139928" class="icon" viewBox="0 0 1024 1024" version="1.1" xmlns="http://www.w3.org/2000/svg" p-id="1175" xmlns:xlink="http://www.w3.org/1999/xlink" width="200" height="200"><defs><style type="text/css"></style></defs><path d="M945.53706667 471.24373333H78.464c-29.61706667 0-53.62666667-24.0096-53.62666667-53.62666666s24.0096-53.62666667 53.62666667-53.62666667h867.07413333c29.61706667 0 53.62666667 24.0096 53.62666667 53.62666667s-24.01173333 53.62666667-53.62773333 53.62666666z" fill="" p-id="1176"></path><path d="M830.7584 374.7168H193.24586667c-50.93973333 0-92.23786667 41.29813333-92.23786667 92.23786667l64.35306667 402.416c0 50.93973333 41.29813333 92.23786667 92.23786666 92.23786666h508.80853334c50.93973333 0 92.23786667-41.29813333 92.23786666-92.23786666l64.35306667-402.416c0-50.94613333-41.29813333-92.23786667-92.23786667-92.23786667zM374.28693333 763.40266667c0 29.61706667-24.00853333 53.62666667-53.62666666 53.62666666s-53.62666667-24.0096-53.62666667-53.62666666V572.91946667c0-29.61813333 24.0096-53.62666667 53.62666667-53.62666667 29.61813333 0 53.62666667 24.00853333 53.62666666 53.62666667V763.40266667z m191.33973334 0c0 29.61706667-24.00853333 53.62666667-53.62666667 53.62666666s-53.62666667-24.0096-53.62666667-53.62666666V572.91946667c0-29.61813333 24.0096-53.62666667 53.62666667-53.62666667 29.61813333 0 53.62666667 24.00853333 53.62666667 53.62666667V763.40266667z m191.33866666 0c0 29.61706667-24.00853333 53.62666667-53.62666666 53.62666666s-53.62666667-24.0096-53.62666667-53.62666666V572.91946667c0-29.61813333 24.00853333-53.62666667 53.62666667-53.62666667s53.62666667 24.00853333 53.62666666 53.62666667V763.40266667zM336.87146667 321.9584l98.7168-180.1568c14.23253333-25.97333333 4.71466667-58.56746667-21.25973334-72.8-25.97333333-14.2336-58.56853333-4.71466667-72.8 21.25973333L214.57173333 321.95626667h122.3008z m350.25706666 0l-98.7168-180.1568c-14.23253333-25.97333333-4.71466667-58.56746667 21.25866667-72.8 25.97546667-14.2336 58.5696-4.71466667 72.8 21.25973333l126.9568 231.69493334H687.12746667z" fill="" p-id="1177"></path></svg>