<?xml version="1.0" standalone="no"?><!DOCTYPE svg PUBLIC "-//W3C//DTD SVG 1.1//EN" "http://www.w3.org/Graphics/SVG/1.1/DTD/svg11.dtd"><svg t="1596962040322" class="icon" viewBox="0 0 1024 1024" version="1.1" xmlns="http://www.w3.org/2000/svg" p-id="903" xmlns:xlink="http://www.w3.org/1999/xlink" width="200" height="200"><defs><style type="text/css"></style></defs><path d="M196.423113 606.369298c-54.785767 0-99.31596 43.742247-99.31596 97.515964 0 53.772694 44.531216 97.515964 99.31596 97.515964 54.706973 0 99.277074-43.744293 99.277074-97.515964C295.700187 650.111544 251.130086 606.369298 196.423113 606.369298zM196.423113 743.253898c-22.725584 0-41.157375-17.630542-41.157375-39.372729 0-21.765723 18.431791-39.418778 41.157375-39.418778 22.698978 0 41.183981 17.657148 41.183981 39.418778C237.606071 725.623355 219.122091 743.253898 196.423113 743.253898z" p-id="904"></path><path d="M428.237783 610.849332c-54.785767 0-99.346659 43.744293-99.346659 97.515964 0 53.773717 44.557822 97.462752 99.346659 97.462752 54.732555 0 99.277074-43.689035 99.277074-97.462752C527.513834 654.593626 482.970338 610.849332 428.237783 610.849332zM428.237783 747.732909c-22.725584 0-41.196261-17.630542-41.196261-39.371706 0-21.7647 18.470677-39.421848 41.196261-39.421848 22.618137 0 41.129746 17.661242 41.129746 39.421848C469.367529 730.10339 450.85592 747.732909 428.237783 747.732909z" p-id="905"></path><path d="M850.095763 608.608292c-54.704926 0-99.276051 43.744293-99.276051 97.515964 0 53.773717 44.571125 97.463776 99.276051 97.463776 54.786791 0 99.330286-43.690058 99.330286-97.463776C949.426049 652.352585 904.882554 608.608292 850.095763 608.608292zM850.095763 745.493915c-22.674419 0-41.129746-17.660218-41.129746-39.372729 0-21.765723 18.455327-39.421848 41.129746-39.421848 22.723537 0 41.182958 17.660218 41.182958 39.421848C891.278721 727.833697 872.82237 745.493915 850.095763 745.493915z" p-id="906"></path><path d="M1004.852406 573.053518l0-114.467031c0-29.780257-24.031323-53.892421-53.662177-53.892421l-43.47721 0 0-60.560284c0-34.075073-21.552875-61.72276-48.171116-61.72276L588.541769 282.411021c-26.592658 0-48.174186 27.646664-48.174186 61.72276l0 109.011786L0.843716 453.145567l23.819498 118.786407 0 39.158858 1.065262 0 0 64.816215 60.000536 0c10.003841-51.15917 55.82647-89.99364 110.706381-89.99364 54.838979 0 100.623745 38.83447 110.585631 89.99364l11.470239 0c11.748578-48.971341 56.455803-85.513606 109.74652-85.513606 53.18327 0 97.943706 36.542264 109.6227 85.513606l140.036383 0 62.575174 0c11.68104-48.971341 56.438407-85.513606 109.623723-85.513606 53.212946 0 97.996918 36.542264 109.733217 85.513606l64.149019 0L1023.977999 573.055564 1004.852406 573.053518zM645.115252 436.70206l-53.665247 0L591.450005 313.739541l53.665247 0L645.115252 436.70206zM772.638647 531.897166l-65.563228-24.325012 0-29.688159 65.563228 24.365944L772.638647 531.897166zM867.486852 506.101663l-189.589986-70.416769L677.896866 318.195016l177.185468 0c3.761674 0 12.405541 9.772574 12.405541 25.938766L867.486852 506.101663 867.486852 506.101663z" p-id="907"></path><path d="M461.41951 325.088006c0 0-5.989411-71.41654-29.820166-77.377298-23.795962-5.948479-59.493999 41.676192-71.431889-17.884322-11.908214-59.522652-41.701774-47.614437-88.274486-62.284555-46.597271-14.655791-36.741809 50.376341-72.522734 38.489616-35.662221-11.909238-29.766954 107.145276-89.24765 89.287559C50.548768 277.477662 0.871345 426.312432 0.871345 426.312432l499.664044 0C508.14981 334.75825 461.41951 325.088006 461.41951 325.088006z" p-id="908"></path></svg>