<?xml version="1.0" standalone="no"?><!DOCTYPE svg PUBLIC "-//W3C//DTD SVG 1.1//EN" "http://www.w3.org/Graphics/SVG/1.1/DTD/svg11.dtd"><svg t="1596962122501" class="icon" viewBox="0 0 1024 1024" version="1.1" xmlns="http://www.w3.org/2000/svg" p-id="1041" xmlns:xlink="http://www.w3.org/1999/xlink" width="200" height="200"><defs><style type="text/css"></style></defs><path d="M534.74341925 285.81827318c28.45840118-0.3725843 55.55025541-12.17877333 75.31057305-32.56046933 19.759104-20.38048237 30.69512059-47.84613452 30.19874607-76.18074548a110.10048 110.10048 0 0 0-38.40166874-84.00987022c2.23671941 6.9589523 3.35568592 14.16669867 3.47947615 21.49944888 1.49276445 26.71926992-11.92997925 52.07077925-34.79718875 65.86610727-22.86599585 13.79411437-51.57440475 13.79411437-74.56540444 0-22.86599585-13.795328-36.28752592-39.14683733-34.79718874-65.86610727 0-5.84119941 0.74638222-11.68239882 2.11292918-17.39859436-21.74824297 20.87807052-34.05080652 49.71026963-34.05080651 79.78401185-0.49758815 28.45961482 10.43842845 55.80026311 30.19874607 76.18195911a107.51544889 107.51544889 0 0 0 75.31057304 32.68425955z m-3.2318957-138.81495703c39.02183348-1.11896652 69.96696178-33.43064178 69.46937363-72.4536889 0-25.10392889-13.42153008-48.34372267-35.16977303-60.89508028a70.40508208 70.40508208 0 0 0-70.33954607 0c-21.74824297 12.55135763-35.17098667 35.79115141-35.17098667 60.89508028-0.49637452 39.02304711 30.32374992 71.33472237 69.47058726 72.4536889h1.74034488zM34.78141155 796.9626643l169.88387556 67.85403259c-13.66911052-28.20960711-69.46816-454.84775348-69.46816-454.84775348l-100.41571556 386.99372089z m690.72516742 223.19862518l10.93480295-166.65319348-381.02873125 39.64442548 370.09271466 127.00998163z m115.57516325-918.02343348l-185.04575052 27.96202667c11.55739497 21.25065482 17.64617482 45.11182697 17.5223846 69.46937363 0 49.58647941-26.47047585 95.44468859-69.47058727 120.17481955a138.53582222 138.53582222 0 0 1-138.81495703 0c-42.99889778-24.85513482-69.47058725-70.58834015-69.47058725-120.17360593 0-10.31585185 1.11896652-20.50669985 3.23068207-30.572544L171.60844325 203.92011852c8.32671289 220.21673718 106.8770797 658.2884883 106.87707972 658.2884883l709.86410666-124.27567407C939.00951703 686.98112 840.21035615 102.3878637 840.21035615 102.3878637l0.87017244-0.24879407z m-534.63419259 346.97671111l301.989888-44.61423881 9.07309512 33.554432-302.36368593 45.60820148-8.69929719-34.54718103z m64.74714074 254.51755141l-10.93480296-38.40166874 371.08667734-53.18974578 11.55739495 37.90408059-371.7080557 53.68733393z m-23.11478992-110.35655585l-14.53928297-35.91615526 478.95893334-65.98989749 14.53928296 37.9040806-478.95893333 64.00197215z m0 0" fill="" p-id="1042"></path></svg>